<?xml version="1.0" encoding="UTF-8" standalone="no"?><!DOCTYPE svg PUBLIC "-//W3C//DTD SVG 1.1//EN" "http://www.w3.org/Graphics/SVG/1.1/DTD/svg11.dtd"><svg width="100%" height="100%" viewBox="0 0 1667 834" version="1.1" xmlns="http://www.w3.org/2000/svg" xmlns:xlink="http://www.w3.org/1999/xlink" xml:space="preserve" xmlns:serif="http://www.serif.com/" style="fill-rule:evenodd;clip-rule:evenodd;stroke-linejoin:round;stroke-miterlimit:2;"><g><g><path d="M433.82,519.264c-17.311,-0.722 -28.096,17.675 -29.933,34.28c-1.971,20.611 6.121,35.338 21.66,35.727c17.972,0.477 27.754,-17.287 29.895,-33.972c2.443,-16.715 -4.093,-35.312 -21.622,-36.035m-8.86,79.091c-24.985,-0.534 -37.922,-19.789 -35.482,-44.151c2.459,-28.649 22.105,-45.58 45.345,-44.45c23.17,1.103 38.202,19.282 34.659,47.225c-3.389,23.739 -19.662,41.937 -44.522,41.376" style="fill:#ed1c24;fill-rule:nonzero;"/><path d="M380.114,594.621c-4.142,0.677 -18.268,2.758 -28.685,2.559c-30.544,-0.68 -48.073,-24.235 -45.08,-54.049c3.073,-35.954 27.02,-55.09 66.73,-53.192c10.27,0.496 19.319,4.177 19.319,4.177c0,-0 -2.106,3.643 -3.308,6.498c-1.249,2.858 -2.594,7.485 -2.594,7.485c-2.413,-1.833 -3.174,-9.518 -24.192,-10.386c-22.752,0.949 -38.122,22.59 -39.92,44.131c-1.798,26.724 12.746,45.852 33.068,46.376c14.291,0.291 23.278,-2.368 28.973,-6.76l-4.311,13.161Z" style="fill:#ed1c24;fill-rule:nonzero;"/><path d="M480.176,511.708c0,-0 3.889,5.187 -1.499,45.488c0,-0 -2.631,32.119 -6.908,38.52c-0.181,0.316 -0.299,0.45 -0.299,0.45c1.475,-0.116 6.301,-0.488 11.031,-0.488c3.343,-0.046 6.452,0.173 8.396,0.318c-0.019,0 -0.714,-1.102 -1.645,-4.675c-0.76,-2.783 -0.253,-6.256 -0.253,-6.256l5.29,-57.522l17.419,68.135l6.671,-0.046l34.082,-68.005l-4.584,56.735c0,-0 -0.768,3.642 -1.798,7.269c-1.041,3.505 -2.098,4.309 -2.613,4.516l0.081,0c-0,0 5.749,-0.539 11.281,-0.539c3.317,0 6.391,0.178 8.297,0.332c0,-0 -0.081,-0.135 -0.205,-0.37c-3.173,-5.471 -0.164,-35.02 -0.164,-35.02c1.89,-42.975 7.62,-49.031 7.62,-49.031c-15.655,2.16 -21.207,0.205 -21.207,0.205l-30.175,62.54l-14.618,-62.041c0,-0 -16.272,0.841 -24,-0.47l-0.2,-0.045Z" style="fill:#ed1c24;fill-rule:nonzero;"/><path d="M656.889,559.041l13.732,-35.916c0,-0 0.723,-1.826 1.888,-3.581c0.264,0.86 0.38,1.437 0.38,1.437l7.469,38.203c-2.739,-0.017 -23.469,-0.143 -23.469,-0.143m29.895,37.064c2.297,-0.164 6.363,-0.388 10.305,-0.388c3.635,-0 6.978,0.197 9.076,0.332l-0.216,-0.443c-9.094,-7.051 -22.42,-84.162 -22.42,-84.162c-7.919,1.302 -19.109,0.019 -19.109,0.019c-0,-0 -31.251,76.515 -38.375,84.777l0.108,-0c-0,-0 5.905,-0.561 11.616,-0.561c2.189,0 4.241,0.089 5.94,0.197c-0.343,-7.294 9.13,-26.322 9.13,-26.322c-0,-0 27.166,-1.637 29.579,0.108c0,-0 4.366,21.317 4.366,26.443" style="fill:#ed1c24;fill-rule:nonzero;"/><path d="M625.042,535.229c-2.478,19.409 -15.386,19.409 -29.593,19.012l3.651,-34.036c-0,-0 28.428,-4.395 25.942,15.024m-42.318,-23.367l-0.016,0.189c0.235,0.361 0.669,1.149 1.092,2.974c0.707,2.748 0.534,5.441 0.534,5.441l-5.007,63.67c0,0 -0.733,3.597 -1.755,7.205c-1.03,3.462 -2.095,4.266 -2.583,4.462l0.07,0c-0,0 5.732,-0.504 11.292,-0.504c3.322,0 6.385,0.181 8.313,0.308c0,-0 -0.741,-1.041 -1.682,-4.576c-0.815,-2.729 -0.373,-6.164 -0.373,-6.164l1.745,-22.167c-0,-0 38.008,4.63 43.369,-20.555c-0,0 10.804,-33.268 -28.42,-30.186c-0,0 -17.958,1.548 -26.579,-0.097" style="fill:#ed1c24;fill-rule:nonzero;"/><path d="M783.728,512.521c-4.438,-0 -8.38,-0.877 -9.345,-1.076l-0.022,0.181c0.237,0.353 0.645,1.183 1.114,3.046c0.668,2.829 0.453,5.595 0.453,5.595l-4.846,53.445l-31.866,-62.305c0,0 -5.287,1.16 -10.405,1.16c-4.457,-0 -8.37,-0.842 -9.356,-1.076l-0.027,0.188c0.242,0.373 0.676,1.184 1.156,3.066c0.707,2.802 0.507,5.576 0.507,5.576l-5.099,64.401c0,-0 -0.722,3.581 -1.782,7.169c-0.984,3.444 -2.098,4.258 -2.594,4.42l0.092,-0c-0,-0 5.784,-0.523 11.389,-0.523c3.371,-0 6.447,0.17 8.408,0.315c-0.019,0 -0.723,-1.068 -1.71,-4.565c-0.803,-2.728 -0.334,-6.118 -0.334,-6.118l4.484,-54.901l34.352,65.53c2.216,-0.172 5.506,-0.334 8.733,-0.334c3.398,-0 6.464,0.162 8.424,0.315c-0,0 -0.75,-1.075 -1.626,-4.573c-0.814,-2.739 -0.299,-6.12 -0.299,-6.12l5.967,-64.147c-0,-0 0.396,-3.535 1.626,-6.04c1.24,-2.54 2.985,-3.797 2.985,-3.797c-0,0 -5.288,1.168 -10.379,1.168" style="fill:#ed1c24;fill-rule:nonzero;"/><path d="M875.23,511.861c-1.348,0.254 -6.182,1.057 -10.594,1.057c-2.866,0 -6.029,-0.496 -8.154,-0.93c0,-0 0.55,2.928 -0.679,6.094c-1.273,3.171 -17.419,33.826 -20.005,36.8c0,0 -12.476,-32.392 -13.624,-36.703c-1.154,-4.331 0.318,-6.191 0.318,-6.191c-1.41,0.315 -4.692,0.93 -8.534,0.93c-4.376,0 -11.454,-0.795 -12.827,-1.049c0,0 25.753,49.395 25.556,53.219l-1.528,19.047c-0,0 -0.777,3.597 -1.853,7.205c-1.06,3.462 -2.189,4.268 -2.685,4.465l0.062,0c-0,0 5.985,-0.507 11.769,-0.507c3.481,0 6.682,0.183 8.653,0.31c-0,0 -0.733,-1.041 -1.691,-4.594c-0.876,-2.729 -0.399,-6.148 -0.399,-6.148l1.475,-19.997l34.74,-53.008Z" style="fill:#ed1c24;fill-rule:nonzero;"/></g><g><path d="M1277.03,510.875c-3.082,1.483 -6.528,1.809 -6.528,1.809c-0,0 -26.584,-0.137 -31.974,-0.081c-5.368,0.081 -9.373,-1.014 -9.373,-1.014c0.243,0.343 0.677,1.138 1.138,2.975c0.715,2.739 0.515,5.433 0.515,5.433l-5.007,63.686c0,-0 -0.696,3.597 -1.753,7.204c-1.013,3.463 -2.089,4.269 -2.585,4.466c23.566,-2.602 49.085,1.437 49.085,1.437c0.569,-5.558 5.986,-17.284 5.986,-17.284c-2.705,3.834 -14.636,7.296 -26.732,7.113c-12.113,-0.197 -10.125,-9.626 -10.125,-9.626l1.69,-21.506c26.713,-0.985 29.334,3.715 29.334,3.715c-0.434,-11.435 2.37,-17.564 2.37,-17.564c-5.967,7.881 -30.962,4.05 -30.962,4.05l1.925,-24.769c0,-0 27.843,-5.994 32.281,5.722c0,-0 -1.472,-7.674 0.515,-15.195l0.2,-0.571Z" style="fill:#ed1c24;fill-rule:nonzero;"/><path d="M994.323,512.937c-4.32,-0 -8.154,-0.823 -9.066,-1.057l-0.029,0.188c0.183,0.362 0.625,1.165 1.094,2.974c0.696,2.748 0.542,5.461 0.542,5.461l-5.018,63.677c0,0 -0.749,3.605 -1.806,7.213c-0.976,3.454 -2.044,4.242 -2.54,4.457l0.054,0c-0,0 5.749,-0.515 11.282,-0.515c3.335,0 6.401,0.162 8.326,0.3c-0,-0 -0.733,-1.049 -1.664,-4.565c-0.841,-2.74 -0.38,-6.175 -0.38,-6.175l4.953,-63.489c0,-0 0.319,-3.452 1.467,-5.876c1.192,-2.478 2.883,-3.696 2.883,-3.696c-0,-0 -5.145,1.103 -10.098,1.103" style="fill:#ed1c24;fill-rule:nonzero;"/><path d="M1132.88,512.937c-4.311,-0 -8.108,-0.823 -9.068,-1.057l-0.035,0.188c0.254,0.362 0.696,1.165 1.13,2.974c0.696,2.748 0.496,5.461 0.496,5.461l-4.972,63.677c0,0 -0.731,3.605 -1.825,7.213c-0.957,3.454 -2.068,4.242 -2.529,4.457l0.08,0c0,0 5.73,-0.515 11.274,-0.515c3.325,0 6.39,0.162 8.316,0.3c-0,-0 -0.715,-1.049 -1.691,-4.565c-0.814,-2.74 -0.334,-6.175 -0.334,-6.175l4.926,-63.489c-0,-0 0.342,-3.452 1.491,-5.876c1.195,-2.478 2.847,-3.696 2.847,-3.696c0,-0 -5.115,1.103 -10.106,1.103" style="fill:#ed1c24;fill-rule:nonzero;"/><path d="M1019.53,511.708c-0,-0 3.877,5.187 -1.545,45.506c-0,0 -2.632,32.101 -6.909,38.502c-0.199,0.316 -0.296,0.45 -0.296,0.45c1.518,-0.116 6.328,-0.488 11.017,-0.488c3.4,-0.046 6.466,0.173 8.437,0.318c0,0 -0.714,-1.102 -1.628,-4.675c-0.796,-2.783 -0.262,-6.229 -0.262,-6.229l5.272,-57.549l17.399,68.135l6.698,-0.046l34.074,-68.005l-4.594,56.735c-0,-0 -0.742,3.642 -1.788,7.269c-0.995,3.505 -2.109,4.309 -2.589,4.516l0.038,0c0,0 5.768,-0.539 11.301,-0.539c3.335,0 6.382,0.178 8.334,0.332c0,-0 -0.099,-0.135 -0.226,-0.37c-3.182,-5.471 -0.2,-35.02 -0.2,-35.02c1.955,-42.975 7.604,-49.031 7.604,-49.031c-15.593,2.16 -21.18,0.205 -21.18,0.205l-30.175,62.54l-14.617,-62.041c-0,-0 -16.246,0.841 -24.001,-0.47l-0.164,-0.045Z" style="fill:#ed1c24;fill-rule:nonzero;"/><path d="M1344.83,559.121c-0,-0 -2.314,31.124 -36.342,28.522c-0,0 -10.077,-0.544 -9.2,-5.751l5.999,-59.943c0,-0 49.622,-11.535 39.543,37.172m-18.759,-47.567l-27.66,1.383c-4.341,0 -8.172,-0.822 -9.114,-1.059l-0.018,0.191c0.218,0.353 0.66,1.165 1.129,2.974c0.723,2.756 0.499,5.468 0.499,5.468l-4.972,63.886c0,-0 -0.75,3.643 -1.79,7.232c-0.995,3.473 -2.106,4.311 -2.586,4.476c8.58,-0.472 22.601,-0.073 22.601,-0.073c53.914,3.732 55.64,-39.497 55.64,-39.497c7.205,-49.004 -33.729,-44.981 -33.729,-44.981" style="fill:#ed1c24;fill-rule:nonzero;"/><path d="M965.919,596.167c-9.329,-1.602 -58.19,-0.019 -58.19,-0.019c6.263,-5.549 10.704,-91.094 10.704,-91.094c0.07,-5.706 -0.48,-10.433 -1.518,-14.156c3.505,0.569 7.022,0.83 10.521,0.83c2.829,0 6.426,-0.261 10.786,-0.83c-1.337,2.321 -2.432,5.721 -3.346,10.222c-0,-0 -6.183,53.798 -8.289,82.013c0,-0 30.102,7.059 44.105,-3.338l-4.773,16.372Z" style="fill:#ed1c24;fill-rule:nonzero;"/><path d="M1208.25,513.172l-45.261,-0.47c-8.715,0.613 -10.128,-0.498 -10.144,-0.515c-0.035,1.591 -0.264,3.425 -0.696,5.361c-0.399,1.933 -2.124,7.612 -2.75,9.23c0.227,-0.146 3.508,-3.104 11.934,-4.134l14.917,0.146c-0.019,0.48 -0.038,0.968 -0.057,1.491l-1.407,30.029l-2.613,26.859c-0.715,10.885 -5.272,14.898 -5.272,14.898l0.3,0.08c1.987,-0.08 8.93,-0.884 11.235,-0.515c2.271,0.4 6.844,0.111 8.715,0.799c0,-0 -2.405,-2.659 -1.752,-13.383l1.572,-28.039l3.082,-26.975c0.118,-1.998 0.199,-3.68 0.261,-5.11l16.906,0.2c8.869,1.238 9.6,3.724 9.6,3.724l0.026,-0.262c-0.126,-1.607 0.669,-6.59 0.85,-8.477c0.199,-1.874 0.58,-3.616 1.014,-5.183l-0,-0.016c-0,0 -1.71,1.092 -10.46,0.262" style="fill:#ed1c24;fill-rule:nonzero;"/></g></g><g><g><path d="M308.14,286.563l-92.636,-0.96c-17.731,0.017 -20.632,-2.255 -20.709,-2.294c-0.033,3.254 -0.48,7.01 -1.346,10.964c-0.871,3.954 -4.346,15.569 -5.697,18.878c0.425,-0.292 7.247,-6.342 24.426,-8.449l30.565,0.292c-0.039,0.982 -0.078,1.98 -0.188,3.056l-2.923,61.421l-5.3,54.935c-1.412,22.259 -10.765,30.471 -10.765,30.471l0.645,0.166c4.054,-0.166 18.249,-1.815 22.932,-1.054c4.676,0.816 13.975,0.221 17.824,1.627c0,0 -4.903,-5.438 -3.496,-27.366l3.215,-57.356l6.287,-55.173c0.204,-4.086 0.37,-7.522 0.425,-10.445l34.668,0.408c18.139,2.531 19.6,7.616 19.6,7.616l0.055,-0.535c-0.237,-3.292 1.351,-13.479 1.738,-17.345c0.446,-3.827 1.13,-7.395 2.128,-10.594l0,-0.039c0,0 -3.496,2.239 -21.448,1.776" style="fill:#ed1c24;fill-rule:nonzero;"/><path d="M814.872,280.627c-6.287,3.033 -13.368,3.701 -13.368,3.701c-0,-0 -53.64,-0.094 -64.62,0.055c-10.964,0.127 -19.877,-2.294 -19.877,-2.294c0.442,0.7 1.313,2.327 2.273,6.083c1.406,5.603 1.053,11.113 1.053,11.113l-10.225,130.26c0,-0 -1.478,7.357 -3.64,14.736c-2.018,7.081 -4.291,8.73 -5.234,9.133c48.169,-5.322 100.419,2.94 100.419,2.94c1.202,-11.367 12.182,-35.352 12.182,-35.352c-5.548,7.842 -29.88,14.924 -54.654,14.549c-24.74,-0.403 -20.731,-19.689 -20.731,-19.689l3.447,-43.988c54.687,-2.013 60.031,7.6 60.031,7.6c-0.865,-23.39 4.826,-35.925 4.826,-35.925c-12.183,16.12 -63.307,8.283 -63.307,8.283l3.954,-50.661c-0,-0 57.004,-12.26 66.032,11.703c-0,-0 -2.995,-15.696 1.015,-31.078l0.424,-1.169Z" style="fill:#ed1c24;fill-rule:nonzero;"/><path d="M585.117,363.648l0.778,-8.747l5.73,-48.014c2.735,-23.279 7.12,-24.3 7.12,-24.3l-0.668,-0.016c-4.417,0.684 -9.259,1.014 -14.344,0.921c-5.14,-0.144 -19.308,-0.701 -23.483,-1.605l-0.078,-0c0,-0 3.309,1.197 0.535,24.498l-14.273,120.482c-2.713,23.091 -6.226,27.437 -6.303,27.47c4.494,-0.662 18.916,-1.031 24.222,-0.921c5.217,0.111 10.043,0.739 14.295,1.627c-0.353,-0.48 -3.96,-5.587 -1.335,-27.68l3.646,-30.691l17.731,-17.935c11.482,14.973 34.612,46.983 47.148,76.4l2.625,-1.053c3.883,-0.409 11.08,-1.186 16.126,-1.186c5.03,0.072 18.078,0.998 22.628,1.439l0.684,0c0,0 -6.304,-2.454 -15.696,-15.696l-48.444,-68.447c-4.362,-6.232 -6.044,-10.043 -6.64,-12.354l56.673,-57.946c11.278,-12.409 18.58,-14.273 18.58,-14.273l-0.734,-0.039c-5.233,-0 -15.569,-0.204 -21.343,-0.7c-5.708,-0.48 -10.887,-1.186 -15.343,-1.98l-0.094,-0.017c0,0 1.368,2.587 -9.894,15.029l-51.769,57.229l-8.08,8.505Z" style="fill:#ed1c24;fill-rule:nonzero;"/><path d="M506.85,284.844c-8.841,0 -16.716,-1.682 -18.602,-2.145l-0.039,0.386c0.463,0.722 1.318,2.366 2.239,6.066c1.462,5.642 1.092,11.168 1.092,11.168l-10.241,130.575c-0,-0 -1.5,7.379 -3.607,14.775c-2.035,7.042 -4.291,8.669 -5.272,9.133l0.171,-0c-0,-0 11.702,-1.092 23.075,-1.092c6.822,-0 13.032,0.369 17.008,0.722c-0.055,-0.094 -1.533,-2.233 -3.458,-9.447c-1.666,-5.565 -0.684,-12.558 -0.684,-12.558l10.06,-130.26c-0,-0 0.7,-7.059 3.033,-12.017c2.421,-5.069 5.862,-7.562 5.862,-7.562c0,0 -10.522,2.256 -20.637,2.256" style="fill:#ed1c24;fill-rule:nonzero;"/><path d="M368.38,362.352c0.446,-15.751 4.511,-47.628 6.215,-60.257c4.638,-0.943 9.927,-1.203 15.823,-1.203c20.599,0 35.114,9.503 35.114,27.145c0,17.693 -14.383,34.536 -34.998,34.536c-7.788,-0 -15.608,0.855 -22.154,-0.221m92.432,91.545c-13.997,-8.913 -47.523,-76.103 -47.523,-76.103c25.909,-8.951 38.572,-26.682 40.364,-49.999c1.054,-13.424 -2.123,-26.809 -11.388,-35.484c-8.951,-8.482 -27.013,-8.686 -40.547,-8.686c0,-0 -48.003,3.623 -59.259,-0.26l-0.039,0.425c0.497,0.667 1.274,2.311 2.239,5.973c1.401,5.581 1.015,11.096 1.015,11.096l-10.021,130.977c0,0 -1.516,7.341 -3.623,14.648c-1.997,6.971 -4.142,8.653 -5.14,9.023l0.127,-0c-0,-0 11.521,-1.02 22.705,-1.02c6.712,-0 12.889,0.353 16.788,0.65c-0,0 -1.478,-2.167 -3.397,-9.337c-1.627,-5.586 -0.723,-12.48 -0.723,-12.48c0,-0 2.901,-39.295 3.717,-50.071l20.208,-0.574c-0,0 23.891,39.052 33.614,71.481l40.883,-0.259Z" style="fill:#ed1c24;fill-rule:nonzero;"/><path d="M167.949,237.454c-40.806,-7.765 -86.885,2.421 -100.308,33.708c-4.716,10.997 -10.06,31.839 4.164,53.75l-0.039,0.094c0.496,0.678 0.982,1.252 1.461,1.941c0.943,1.346 1.958,2.658 2.995,4.01c0.927,1.13 1.792,2.161 2.719,3.275c0.11,0.072 0.237,0.254 0.386,0.331c12.701,14.494 27.217,24.074 36.113,31.712c2.531,2.162 4.654,3.954 6.689,5.785c6.916,8.229 14.389,18.123 14.477,35.037l0.078,-0.148c-1.517,33.614 -55.487,48.427 -85.737,9.226c-0,14.295 -5.163,27.443 -9.1,36.962c6.712,-2.553 24.536,2.239 24.536,2.239c41.087,7.782 87.535,-2.404 101.031,-33.691c4.197,-9.707 8.873,-27.03 0.11,-46.056c-3.497,-8.041 -8.984,-16.215 -17.124,-24.074c-10.628,-10.318 -25.623,-16.401 -37.365,-30.288c-7.01,-8.356 -14.681,-18.321 -14.791,-35.517l-0.078,0.11c1.539,-33.636 55.063,-48.406 85.037,-9.188c0.055,-14.35 5.195,-27.405 9.095,-36.962c-6.69,2.515 -24.349,-2.256 -24.349,-2.256" style="fill:#ed1c24;fill-rule:nonzero;"/></g><g><path d="M1146.95,297.787c-35.406,-1.478 -57.483,36.151 -61.255,70.113c-4.032,42.157 12.552,72.28 44.264,73.074c36.774,0.976 56.766,-35.357 61.184,-69.484c4.991,-34.188 -8.361,-72.225 -44.193,-73.703m-18.194,161.768c-51.047,-1.092 -77.525,-40.476 -72.55,-90.304c5.007,-58.598 45.262,-93.227 92.779,-90.916c47.424,2.256 78.154,39.438 70.836,96.591c-6.861,48.554 -40.161,85.776 -91.065,84.629" style="fill:#ed1c24;fill-rule:nonzero;"/><path d="M1624.82,280.627c-6.21,3.033 -13.297,3.701 -13.297,3.701c0,-0 -54.433,-0.281 -65.414,-0.166c-10.964,0.166 -19.121,-2.073 -19.121,-2.073c0.502,0.7 1.352,2.327 2.256,6.083c1.5,5.603 1.075,11.113 1.075,11.113l-10.225,130.26c0,-0 -1.516,7.357 -3.662,14.736c-1.979,7.081 -4.213,8.73 -5.195,9.133c48.185,-5.322 100.347,2.94 100.347,2.94c1.202,-11.367 12.238,-35.352 12.238,-35.352c-5.548,7.842 -29.936,14.924 -54.677,14.549c-24.74,-0.403 -20.67,-19.689 -20.67,-19.689l3.441,-43.988c54.655,-2.013 59.999,7.6 59.999,7.6c-0.872,-23.39 4.842,-35.925 4.842,-35.925c-12.221,16.12 -63.346,8.283 -63.346,8.283l3.976,-50.661c0,-0 56.987,-12.26 65.994,11.703c-0,-0 -2.979,-15.696 1.086,-31.078l0.353,-1.169Z" style="fill:#ed1c24;fill-rule:nonzero;"/><path d="M1486.09,449.791c-6.563,1.015 -29.009,4.418 -45.598,3.96c-48.61,-1.037 -76.472,-38.55 -71.735,-85.941c4.898,-57.191 43.007,-87.646 106.187,-84.59c16.325,0.794 30.692,6.651 30.692,6.651c-0,0 -3.309,5.752 -5.289,10.286c-1.942,4.561 -4.103,11.956 -4.103,11.956c-3.811,-2.939 -5.03,-15.177 -38.479,-16.545c-36.184,1.572 -60.594,35.98 -63.478,70.185c-2.879,42.565 20.245,72.925 52.569,73.797c22.761,0.441 37.034,-3.773 46.112,-10.744l-6.878,20.985Z" style="fill:#ed1c24;fill-rule:nonzero;"/><path d="M941.658,241.096c0,-0 77.823,4.754 120.869,-0.37c-0,0 -2.295,6.784 -2.642,12.795c-0.463,5.951 -0.872,16.402 -0.872,16.402c-10.263,-17.792 -83.15,-9.155 -83.15,-9.155l-7.081,67.802c-0,0 58.371,7.694 79.008,-4.715c0,-0 -4.125,12.409 -3.535,33.614c0,0 -22.424,-11.758 -77.839,-7.043c-0,0 -13.518,87.811 -5.289,105.228c-3.806,-0.337 -7.892,-0.519 -12.095,-0.574c-12.348,-0.127 -23.5,1.015 -31.43,2.885c1.257,-1.07 3.017,-3.403 4.77,-8.543c0.166,-0.48 2.179,-6.453 3.365,-12.922c7.489,-42.345 19.765,-174.585 19.765,-174.585c0,0 0.535,-6.673 -1.108,-13.479c-1.131,-4.494 -2.145,-6.485 -2.736,-7.34" style="fill:#ed1c24;fill-rule:nonzero;"/><path d="M1267.36,362.352c0.442,-15.751 4.528,-47.628 6.232,-60.257c4.605,-0.943 9.872,-1.203 15.768,-1.203c20.621,0 35.136,9.503 35.136,27.145c0,17.693 -14.333,34.536 -34.949,34.536c-7.787,-0 -15.64,0.855 -22.187,-0.221m92.394,91.545c-13.925,-8.913 -47.484,-76.103 -47.484,-76.103c25.904,-8.951 38.605,-26.682 40.381,-49.999c1.02,-13.424 -2.195,-26.809 -11.405,-35.484c-8.929,-8.482 -27.052,-8.686 -40.531,-8.686c0,-0 -47.997,3.623 -59.259,-0.26l-0.094,0.425c0.48,0.667 1.352,2.311 2.256,5.973c1.445,5.581 1.015,11.096 1.015,11.096l-10.021,130.977c-0,0 -1.533,7.341 -3.623,14.648c-1.997,6.971 -4.137,8.653 -5.118,9.023l0.11,-0c-0,-0 11.537,-1.02 22.683,-1.02c6.734,-0 12.889,0.353 16.772,0.65c-0,0 -1.462,-2.167 -3.365,-9.337c-1.626,-5.586 -0.683,-12.48 -0.683,-12.48c-0,-0 2.829,-39.295 3.733,-50.071l20.174,-0.574c0,0 23.87,39.052 33.598,71.481l40.861,-0.259Z" style="fill:#ed1c24;fill-rule:nonzero;"/></g></g></svg>