<?xml version="1.0" encoding="UTF-8" standalone="no"?>
<!DOCTYPE svg PUBLIC "-//W3C//DTD SVG 1.1//EN" "http://www.w3.org/Graphics/SVG/1.1/DTD/svg11.dtd">
<svg width="100%" height="100%" viewBox="0 0 100 100" version="1.1" xmlns="http://www.w3.org/2000/svg" xmlns:xlink="http://www.w3.org/1999/xlink" xml:space="preserve" xmlns:serif="http://www.serif.com/" style="fill-rule:evenodd;clip-rule:evenodd;stroke-linejoin:round;stroke-miterlimit:2;">
    <rect id="Artboard1" x="0" y="0" width="100" height="100" style="fill:none;"/>
    <g id="Artboard11" serif:id="Artboard1">
        <g transform="matrix(32.1176,0,0,-32.1176,63.5045,42.7843)">
            <path d="M-1.394,0.156C-1.394,-0.382 -0.958,-0.817 -0.42,-0.817C0.117,-0.817 0.553,-0.382 0.553,0.156C0.553,0.374 0.481,0.574 0.36,0.736C0.288,0.829 0.196,0.909 0.085,0.967C-0.322,1.179 -0.823,1.022 -1.035,0.615C-1.247,0.209 -1.089,-0.293 -0.683,-0.505C-0.676,-0.509 -0.668,-0.511 -0.661,-0.515C-1.02,-0.327 -1.16,0.117 -0.972,0.477C-0.784,0.836 -0.34,0.976 0.02,0.788C0.133,0.729 0.225,0.644 0.291,0.545C0.229,0.627 0.149,0.696 0.052,0.747C-0.297,0.929 -0.728,0.794 -0.91,0.444C-1.076,0.127 -0.978,-0.258 -0.696,-0.462C-0.911,-0.286 -0.981,0.022 -0.847,0.279C-0.694,0.572 -0.332,0.686 -0.038,0.533C0.054,0.485 0.129,0.416 0.183,0.334C0.133,0.401 0.067,0.458 -0.012,0.499C-0.297,0.648 -0.648,0.537 -0.797,0.252C-0.946,-0.033 -0.835,-0.384 -0.55,-0.533C-0.472,-0.574 -0.389,-0.595 -0.306,-0.598C-0.306,-0.598 -0.306,-0.598 -0.305,-0.598C-0.315,-0.599 -0.324,-0.598 -0.334,-0.598C-0.333,-0.598 -0.332,-0.598 -0.331,-0.598C-0.47,-0.601 -0.612,-0.57 -0.744,-0.501C-1.163,-0.283 -1.325,0.234 -1.107,0.653C-0.916,1.018 -0.5,1.188 -0.118,1.081C-0.214,1.112 -0.315,1.129 -0.42,1.129C-0.958,1.129 -1.394,0.693 -1.394,0.156ZM-0.304,-0.598C-0.304,-0.598 -0.304,-0.598 -0.303,-0.598C-0.304,-0.598 -0.304,-0.598 -0.304,-0.598Z" style="fill:url(#_Radial1);fill-rule:nonzero;"/>
        </g>
        <g transform="matrix(0.31834,0,0,0.31834,14.8601,83.2865)">
            <path d="M0,-23.66L-12.791,-23.66L-12.791,9.612L-23.962,9.612L-23.962,-23.66L-36.755,-23.66L-36.755,-33.272L0,-33.272L0,-23.66Z" style="fill:rgb(12,107,153);fill-rule:nonzero;"/>
        </g>
        <g transform="matrix(0.31834,0,0,0.31834,15.9118,86.3464)">
            <path d="M0,-42.884L11.171,-42.884L11.171,-27.267L25.887,-27.267L25.887,-42.884L37.055,-42.884L37.055,0L25.887,0L25.887,-17.658L11.171,-17.658L11.171,0L0,0L0,-42.884Z" style="fill:rgb(12,107,153);fill-rule:nonzero;"/>
        </g>
        <g transform="matrix(0.31834,0,0,0.31834,29.6392,86.3464)">
            <path d="M0,-42.884L34.174,-42.884L34.174,-33.933L11.172,-33.933L11.172,-26.426L32.191,-26.426L32.191,-17.778L11.172,-17.778L11.172,-9.61L34.775,-9.61L34.775,0L0,0L0,-42.884Z" style="fill:rgb(12,107,153);fill-rule:nonzero;"/>
        </g>
        <g transform="matrix(0.31834,0,0,0.31834,51.3573,75.506)">
            <path d="M0,25.104L8.95,25.104C12.494,25.104 14.955,23.842 14.955,20.3C14.955,16.517 12.314,15.255 8.95,15.255L0,15.255L0,25.104ZM0,8.048L8.649,8.048C10.572,8.048 13.214,7.028 13.214,3.964C13.214,0.84 10.991,-0.179 8.649,-0.179L0,-0.179L0,8.048ZM-11.17,-8.831L8.89,-8.831C16.279,-8.949 24.384,-7.028 24.384,1.921C24.384,5.767 22.103,8.888 18.738,10.57C23.304,11.89 26.126,15.856 26.126,20.719C26.126,30.929 18.622,34.053 9.431,34.053L-11.17,34.053L-11.17,-8.831Z" style="fill:rgb(12,107,153);fill-rule:nonzero;"/>
        </g>
        <g transform="matrix(0.31834,0,0,0.31834,61.1273,86.3464)">
            <path d="M0,-42.884L34.174,-42.884L34.174,-33.933L11.171,-33.933L11.171,-26.426L32.192,-26.426L32.192,-17.778L11.171,-17.778L11.171,-9.61L34.771,-9.61L34.771,0L0,0L0,-42.884Z" style="fill:rgb(12,107,153);fill-rule:nonzero;"/>
        </g>
        <g transform="matrix(0.31834,0,0,0.31834,76.5176,77.2832)">
            <path d="M0,14.057C0.241,19.103 3.363,20.723 8.108,20.723C11.472,20.723 14.955,19.521 14.955,16.338C14.955,12.555 8.828,11.835 2.642,10.091C-3.484,8.35 -9.91,5.588 -9.91,-2.28C-9.91,-11.649 -0.481,-15.312 7.567,-15.312C16.096,-15.312 24.685,-11.167 24.745,-1.501L13.574,-1.501C13.755,-5.402 10.09,-6.664 6.667,-6.664C4.263,-6.664 1.261,-5.825 1.261,-3.001C1.261,0.302 7.449,0.904 13.692,2.644C19.88,4.386 26.124,7.269 26.124,15.018C26.124,25.886 16.878,29.369 7.449,29.369C-2.401,29.369 -11.111,25.046 -11.173,14.057L0,14.057Z" style="fill:rgb(12,107,153);fill-rule:nonzero;"/>
        </g>
        <g transform="matrix(0.31834,0,0,0.31834,96.8405,83.2865)">
            <path d="M0,-23.66L-12.79,-23.66L-12.79,9.612L-23.964,9.612L-23.964,-23.66L-36.754,-23.66L-36.754,-33.272L0,-33.272L0,-23.66Z" style="fill:rgb(12,107,153);fill-rule:nonzero;"/>
        </g>
        <g transform="matrix(0.31834,0,0,0.31834,7.73296,91.0032)">
            <path d="M0,-0.652L4.03,-0.652C6.348,-0.631 7.411,-1.649 7.411,-3.49C7.411,-5.332 6.348,-6.327 4.03,-6.327L0,-6.327L0,-0.652ZM-2.058,-8.062L4.724,-8.062C7.801,-8.062 9.47,-6.35 9.47,-3.49C9.47,-0.631 7.801,1.105 4.724,1.083L0,1.083L0,7.41L-2.058,7.41L-2.058,-8.062Z" style="fill:rgb(12,107,153);fill-rule:nonzero;"/>
        </g>
        <g transform="matrix(0.31834,0,0,0.31834,19.0605,91.0927)">
            <path d="M0,-1.214C1.928,-1.214 3.574,-1.712 3.574,-3.967C3.574,-5.483 2.751,-6.608 0.823,-6.608L-4.291,-6.608L-4.291,-1.214L0,-1.214ZM-6.348,-8.343L0.931,-8.343C3.834,-8.343 5.633,-6.76 5.633,-4.291C5.633,-2.427 4.81,-0.891 2.946,-0.37L2.946,-0.325C4.744,0.021 5.112,1.344 5.265,2.859C5.396,4.376 5.309,6.068 6.175,7.129L3.879,7.129C3.292,6.499 3.618,4.832 3.316,3.314C3.097,1.797 2.73,0.519 0.736,0.519L-4.291,0.519L-4.291,7.129L-6.348,7.129L-6.348,-8.343Z" style="fill:rgb(12,107,153);fill-rule:nonzero;"/>
        </g>
        <g transform="matrix(0.31834,0,0,0.31834,29.6772,88.8719)">
            <path d="M0,12.739C3.771,12.739 5.354,9.489 5.354,6.369C5.354,3.248 3.771,0 0,0C-3.769,0 -5.352,3.248 -5.352,6.369C-5.352,9.489 -3.769,12.739 0,12.739M0,-1.735C4.919,-1.735 7.413,2.165 7.413,6.369C7.413,10.572 4.919,14.474 0,14.474C-4.918,14.474 -7.411,10.572 -7.411,6.369C-7.411,2.165 -4.918,-1.735 0,-1.735" style="fill:rgb(12,107,153);fill-rule:nonzero;"/>
        </g>
        <g transform="matrix(0.31834,0,0,0.31834,38.3289,93.3621)">
            <path d="M0,-15.472L2.815,-15.472L7.692,-2.471L12.589,-15.472L15.406,-15.472L15.406,0L13.456,0L13.456,-12.872L13.412,-12.872L8.58,0L6.826,0L1.992,-12.872L1.95,-12.872L1.95,0L0,0L0,-15.472Z" style="fill:rgb(12,107,153);fill-rule:nonzero;"/>
        </g>
        <g transform="matrix(0.31834,0,0,0.31834,51.8841,88.8719)">
            <path d="M0,12.739C3.771,12.739 5.353,9.489 5.353,6.369C5.353,3.248 3.771,0 0,0C-3.769,0 -5.353,3.248 -5.353,6.369C-5.353,9.489 -3.769,12.739 0,12.739M0,-1.735C4.92,-1.735 7.411,2.165 7.411,6.369C7.411,10.572 4.92,14.474 0,14.474C-4.916,14.474 -7.411,10.572 -7.411,6.369C-7.411,2.165 -4.916,-1.735 0,-1.735" style="fill:rgb(12,107,153);fill-rule:nonzero;"/>
        </g>
        <g transform="matrix(0.31834,0,0,0.31834,62.1767,92.8099)">
            <path d="M0,-12.002L-5.157,-12.002L-5.157,-13.737L7.217,-13.737L7.217,-12.002L2.058,-12.002L2.058,1.735L0,1.735L0,-12.002Z" style="fill:rgb(12,107,153);fill-rule:nonzero;"/>
        </g>
        <g transform="matrix(0.31834,0,0,0.31834,-83.2867,29.7154)">
            <rect x="483.923" y="184.462" width="2.06" height="15.472" style="fill:rgb(12,107,153);"/>
        </g>
        <g transform="matrix(0.31834,0,0,0.31834,80.0723,88.8719)">
            <path d="M0,12.739C3.771,12.739 5.353,9.489 5.353,6.369C5.353,3.248 3.771,0 0,0C-3.771,0 -5.353,3.248 -5.353,6.369C-5.353,9.489 -3.771,12.739 0,12.739M0,-1.735C4.916,-1.735 7.411,2.165 7.411,6.369C7.411,10.572 4.916,14.474 0,14.474C-4.92,14.474 -7.411,10.572 -7.411,6.369C-7.411,2.165 -4.92,-1.735 0,-1.735" style="fill:rgb(12,107,153);fill-rule:nonzero;"/>
        </g>
        <g transform="matrix(0.31834,0,0,0.31834,88.7234,93.3621)">
            <path d="M0,-15.472L2.187,-15.472L10.333,-2.926L10.378,-2.926L10.378,-15.472L12.329,-15.472L12.329,0L10.075,0L1.994,-12.417L1.949,-12.417L1.949,0L0,0L0,-15.472Z" style="fill:rgb(12,107,153);fill-rule:nonzero;"/>
        </g>
    </g>
    <defs>
        <radialGradient id="_Radial1" cx="0" cy="0" r="1" gradientUnits="userSpaceOnUse" gradientTransform="matrix(1,0,0,-1,0,0.37014)"><stop offset="0" style="stop-color:white;stop-opacity:1"/><stop offset="0.03" style="stop-color:white;stop-opacity:1"/><stop offset="0.49" style="stop-color:rgb(237,119,97);stop-opacity:1"/><stop offset="0.75" style="stop-color:rgb(233,53,48);stop-opacity:1"/><stop offset="1" style="stop-color:rgb(216,56,42);stop-opacity:1"/></radialGradient>
    </defs>
</svg>
