<?xml version="1.0" encoding="UTF-8" standalone="no"?>
<!DOCTYPE svg PUBLIC "-//W3C//DTD SVG 1.1//EN" "http://www.w3.org/Graphics/SVG/1.1/DTD/svg11.dtd">
<svg width="100%" height="100%" viewBox="0 0 400 400" version="1.1" xmlns="http://www.w3.org/2000/svg" xmlns:xlink="http://www.w3.org/1999/xlink" xml:space="preserve" xmlns:serif="http://www.serif.com/" style="fill-rule:evenodd;clip-rule:evenodd;stroke-linejoin:round;stroke-miterlimit:2;">
    <rect id="Artboard1" x="0" y="0" width="400" height="400" style="fill:none;"/>
    <g id="Artboard11" serif:id="Artboard1">
        <g transform="matrix(201.058,0,0,-201.058,284.537,231.331)">
            <path d="M-1.394,0.156C-1.394,-0.382 -0.958,-0.817 -0.42,-0.817C0.117,-0.817 0.553,-0.382 0.553,0.156C0.553,0.374 0.481,0.574 0.36,0.736C0.288,0.829 0.196,0.909 0.085,0.967C-0.322,1.179 -0.823,1.022 -1.035,0.615C-1.247,0.209 -1.089,-0.293 -0.683,-0.505C-0.676,-0.509 -0.668,-0.511 -0.661,-0.515C-1.02,-0.327 -1.16,0.117 -0.972,0.477C-0.784,0.836 -0.34,0.976 0.02,0.788C0.133,0.729 0.225,0.644 0.291,0.545C0.229,0.627 0.149,0.696 0.052,0.747C-0.297,0.929 -0.728,0.794 -0.91,0.444C-1.076,0.127 -0.978,-0.258 -0.696,-0.462C-0.911,-0.286 -0.981,0.022 -0.847,0.279C-0.694,0.572 -0.332,0.686 -0.038,0.533C0.054,0.485 0.129,0.416 0.183,0.334C0.133,0.401 0.067,0.458 -0.012,0.499C-0.297,0.648 -0.648,0.537 -0.797,0.252C-0.946,-0.033 -0.835,-0.384 -0.55,-0.533C-0.472,-0.574 -0.389,-0.595 -0.306,-0.598C-0.306,-0.598 -0.306,-0.598 -0.305,-0.598C-0.315,-0.599 -0.324,-0.598 -0.334,-0.598C-0.333,-0.598 -0.332,-0.598 -0.331,-0.598C-0.47,-0.601 -0.612,-0.57 -0.744,-0.501C-1.163,-0.283 -1.325,0.234 -1.107,0.653C-0.916,1.018 -0.5,1.188 -0.118,1.081C-0.214,1.112 -0.315,1.129 -0.42,1.129C-0.958,1.129 -1.394,0.693 -1.394,0.156ZM-0.304,-0.598C-0.304,-0.598 -0.304,-0.598 -0.303,-0.598C-0.304,-0.598 -0.304,-0.598 -0.304,-0.598Z" style="fill:rgb(164,16,16);fill-rule:nonzero;"/>
        </g>
    </g>
</svg>
